<svg viewBox="0 0 13.083 13.714"><path fill="#FFF" d="M10.397 6.047a.56.56 0 0 0-1.122 0 .56.56 0 0 0 1.122 0Zm.832 0c0 .765-.625 1.387-1.393 1.387a1.392 1.392 0 0 1-1.393-1.387 1.392 1.392 0 0 1 2.786 0ZM.968 12.87h11.135a.146.146 0 0 0 .147-.135v-.874L9.28 8.985l-1.215 1.21.678.676a.414.414 0 0 1 0 .58.423.423 0 0 1-.554.026l-.024-.021L3.39 6.699.832 9.246v3.477c0 .078.058.14.136.147ZM12.25 4.215a.145.145 0 0 0-.147-.147H.98a.146.146 0 0 0-.147.135v3.868l2.251-2.243a.395.395 0 0 1 .291-.118.4.4 0 0 1 .266.094l.022.02 3.805 3.79 1.506-1.513a.415.415 0 0 1 .291-.118c.1 0 .194.034.267.095l.021.02 2.697 2.62V4.215Zm.833-.002v8.525a.973.973 0 0 1-.945.975H.98a.974.974 0 0 1-.98-.94V4.215c0-.529.415-.957.944-.976h11.159c.53 0 .96.413.98.94v.034ZM2.862.815h7.373a.41.41 0 0 0 .409-.407.42.42 0 0 0-.41-.408H2.863a.409.409 0 0 0-.41.409.41.41 0 0 0 .41.406ZM1.227 2.027a.41.41 0 0 1 .379-.406l.03-.001h9.812c.218 0 .409.19.409.407a.41.41 0 0 1-.38.406l-.028.001H1.636a.409.409 0 0 1-.41-.407Z"/></svg>